<?xml version="1.0" encoding="UTF-8" standalone="no"?>
<!-- Created with Inkscape (http://www.inkscape.org/) -->

<svg
   xmlns:dc="http://purl.org/dc/elements/1.1/"
   xmlns:cc="http://creativecommons.org/ns#"
   xmlns:rdf="http://www.w3.org/1999/02/22-rdf-syntax-ns#"
   xmlns:svg="http://www.w3.org/2000/svg"
   xmlns="http://www.w3.org/2000/svg"
   xmlns:sodipodi="http://sodipodi.sourceforge.net/DTD/sodipodi-0.dtd"
   xmlns:inkscape="http://www.inkscape.org/namespaces/inkscape"
   width="1853.5259"
   height="561.85004"
   viewBox="0 0 490.41204 148.65616"
   version="1.1"
   id="svg8"
   inkscape:version="0.92.4 (5da689c313, 2019-01-14)"
   sodipodi:docname="BCCR.svg">
  <defs
     id="defs2" />
  <sodipodi:namedview
     id="base"
     pagecolor="#ffffff"
     bordercolor="#666666"
     borderopacity="1.0"
     inkscape:pageopacity="0.0"
     inkscape:pageshadow="2"
     inkscape:zoom="0.47325885"
     inkscape:cx="884.141"
     inkscape:cy="315.55655"
     inkscape:document-units="mm"
     inkscape:current-layer="layer1"
     showgrid="false"
     fit-margin-top="0"
     fit-margin-left="0"
     fit-margin-right="0"
     fit-margin-bottom="0"
     showguides="true"
     inkscape:guide-bbox="true"
     inkscape:window-width="1366"
     inkscape:window-height="744"
     inkscape:window-x="-8"
     inkscape:window-y="-8"
     inkscape:window-maximized="1"
     units="px">
    <sodipodi:guide
       position="121.55968,112.92521"
       orientation="0,1"
       id="guide834"
       inkscape:locked="false" />
    <sodipodi:guide
       position="198.0188,59.356255"
       orientation="1,0"
       id="guide838"
       inkscape:locked="false" />
    <sodipodi:guide
       position="156.83408,75.626685"
       orientation="0,1"
       id="guide855"
       inkscape:locked="false" />
    <sodipodi:guide
       position="120.25279,84.471205"
       orientation="1,0"
       id="guide863"
       inkscape:locked="false" />
    <sodipodi:guide
       position="173.08432,72.989795"
       orientation="0,1"
       id="guide883"
       inkscape:locked="false" />
    <sodipodi:guide
       position="162.24581,35.349087"
       orientation="0,1"
       id="guide885"
       inkscape:locked="false" />
    <sodipodi:guide
       position="154.93612,49.968465"
       orientation="1,0"
       id="guide887"
       inkscape:locked="false" />
    <sodipodi:guide
       position="159.80522,38.071165"
       orientation="1,0"
       id="guide892"
       inkscape:locked="false" />
    <sodipodi:guide
       position="186.32616,40.069845"
       orientation="1,0"
       id="guide894"
       inkscape:locked="false" />
    <sodipodi:guide
       position="176.87087,68.666334"
       orientation="0,1"
       id="guide896"
       inkscape:locked="false" />
    <sodipodi:guide
       position="180.00594,35.349087"
       orientation="1,0"
       id="guide904"
       inkscape:locked="false" />
    <sodipodi:guide
       position="132.11337,75.626685"
       orientation="1,0"
       id="guide871"
       inkscape:locked="false" />
    <sodipodi:guide
       position="462.19708,231.69323"
       orientation="0,1"
       id="guide890"
       inkscape:locked="false" />
    <sodipodi:guide
       position="85.982087,1.2873255"
       orientation="0,1"
       id="guide905"
       inkscape:locked="false" />
    <sodipodi:guide
       position="43.386363,147.06157"
       orientation="0,1"
       id="guide907"
       inkscape:locked="false" />
  </sodipodi:namedview>
  <metadata
     id="metadata5">
    <rdf:RDF>
      <cc:Work
         rdf:about="">
        <dc:format>image/svg+xml</dc:format>
        <dc:type
           rdf:resource="http://purl.org/dc/dcmitype/StillImage" />
        <dc:title></dc:title>
      </cc:Work>
    </rdf:RDF>
  </metadata>
  <g
     inkscape:label="Capa 1"
     inkscape:groupmode="layer"
     id="layer1"
     transform="translate(221.91631,-61.43697)">
    <flowRoot
       xml:space="preserve"
       id="flowRoot835"
       style="font-style:normal;font-variant:normal;font-weight:normal;font-stretch:normal;font-size:40px;line-height:1.25;font-family:Interface;-inkscape-font-specification:Interface;text-align:center;letter-spacing:0px;word-spacing:0px;text-anchor:middle;fill:#000000;fill-opacity:1;stroke:none"
       transform="matrix(0.26458333,0,0,0.26458333,-171.50038,-6.6282783)"><flowRegion
         id="flowRegion837"><rect
           id="rect839"
           width="75.901619"
           height="44.736393"
           x="312.61176"
           y="690.34497" /></flowRegion><flowPara
         id="flowPara841" /></flowRoot>    <flowRoot
       xml:space="preserve"
       id="flowRoot843"
       style="font-style:normal;font-variant:normal;font-weight:normal;font-stretch:normal;font-size:40px;line-height:1.25;font-family:Interface;-inkscape-font-specification:Interface;text-align:center;letter-spacing:0px;word-spacing:0px;text-anchor:middle;fill:#000000;fill-opacity:1;stroke:none"
       transform="matrix(0.26458333,0,0,0.26458333,-171.50038,-6.6282783)"><flowRegion
         id="flowRegion845"><rect
           id="rect847"
           width="72.042213"
           height="172.38672"
           x="315.18469"
           y="614.15338" /></flowRegion><flowPara
         id="flowPara849" /></flowRoot>    <g
       aria-label="B"
       transform="scale(1.0231793,0.97734579)"
       style="font-style:normal;font-variant:normal;font-weight:normal;font-stretch:normal;font-size:20.90387726px;line-height:1.25;font-family:Interface;-inkscape-font-specification:Interface;text-align:center;letter-spacing:0px;word-spacing:0px;text-anchor:middle;fill:#0c3e65;fill-opacity:1;stroke:none;stroke-width:0.52259696"
       id="text861">
      <path
         d="M -209.11168,136.28658 V 64.462156 h 26.9464 q 8.2309,0 13.17924,2.204706 4.99734,2.155713 7.78997,6.712105 2.84162,4.507399 2.84162,9.455738 0,4.605386 -2.49867,8.671844 -2.49867,4.066457 -7.54499,6.565124 6.51613,1.910745 9.99466,6.516127 3.52753,4.60539 3.52753,10.87655 0,5.04633 -2.15571,9.40675 -2.10672,4.31142 -5.2423,6.66311 -3.13558,2.35169 -7.88795,3.57652 -4.70337,1.17585 -11.56246,1.17585 z m 9.50473,-41.64445 h 15.53093 q 6.32015,0 9.06379,-0.832888 3.62551,-1.077857 5.43827,-3.576523 1.86175,-2.498667 1.86175,-6.271164 0,-3.576523 -1.71477,-6.271163 -1.71477,-2.743634 -4.89934,-3.723504 -3.18458,-1.028862 -10.92555,-1.028862 h -14.35508 z m 0,33.16858 h 17.88261 q 4.60539,0 6.46714,-0.34296 3.28256,-0.58792 5.48727,-1.95974 2.2047,-1.37181 3.62552,-3.96847 1.42081,-2.64564 1.42081,-6.07519 0,-4.01746 -2.05773,-6.95707 -2.05773,-2.9886 -5.73224,-4.16444 -3.62551,-1.22484 -10.4846,-1.22484 h -16.60878 z"
         style="font-style:normal;font-variant:normal;font-weight:normal;font-stretch:normal;font-size:100.33861542px;font-family:Helvetica;-inkscape-font-specification:Helvetica;fill:#0c3e65;fill-opacity:1;stroke-width:0.52259696"
         id="path871"
         inkscape:connector-curvature="0" />
    </g>
    <g
       aria-label="R"
       transform="matrix(1.9261443,0,0,1.8398623,-22.766879,-120.07441)"
       style="font-style:normal;font-variant:normal;font-weight:normal;font-stretch:normal;font-size:11.10426521px;line-height:1.25;font-family:Interface;-inkscape-font-specification:Interface;text-align:center;letter-spacing:0px;word-spacing:0px;text-anchor:middle;fill:#0c3e65;fill-opacity:1;stroke:none;stroke-width:0.27760658"
       id="text861-9">
      <path
         d="m -65.462801,140.28131 21.378424,0.33583 c 3.197668,0.0502 3.771579,0.73862 5.477194,2.37317 1.741149,1.59901 2.386331,4.25884 2.386331,7.35027 0,2.84269 -0.09616,4.97991 -1.94391,7.04086 -1.812216,2.02542 -3.240016,3.58312 -2.668434,2.5662 1.705615,0.39087 2.554591,1.24638 3.300802,2.45453 0.78174,1.20814 0.918413,3.29154 0.918413,5.10376 0,0.85281 0.03089,0.0321 -0.01022,4.26819 l -2e-6,4.33684 c 0,1.8385 1.572229,2.32821 1.820964,2.68355 h -6.157677 c 0,0 0.1066,-2.01891 -1e-6,-2.97832 v -6.8576 c 0,-1.90365 -0.191257,-2.74008 -1.826956,-4.82096 -0.817274,-1.10154 -3.126487,-1.73033 -4.974236,-1.73097 l -12.941897,-0.004 v 16.39185 l -4.758795,4.4e-4 z m 4.758795,17.63757 11.245358,-0.0194 c 2.913755,-0.005 4.618336,0.0149 6.466085,-1.37083 1.547227,-2.05059 1.644662,-2.79218 1.644662,-5.52827 0,-2.27415 0.236072,-3.55097 -0.794409,-4.61698 -0.994942,-1.10154 -1.820821,-1.64813 -4.130504,-1.65231 l -14.431196,-0.0261 z"
         style="font-style:italic;font-variant:normal;font-weight:normal;font-stretch:normal;font-size:53.30046844px;font-family:HelveticaNeue;-inkscape-font-specification:'HelveticaNeue weight=101 Italic';fill:#0c3e65;fill-opacity:1;stroke-width:0.27760658"
         id="path889"
         inkscape:connector-curvature="0"
         sodipodi:nodetypes="cscscccscccccccscccccscscscc" />
    </g>
    <g
       aria-label="c"
       transform="scale(0.99953472,1.0004655)"
       style="font-style:normal;font-variant:normal;font-weight:normal;font-stretch:normal;font-size:35.47793961px;line-height:1.25;font-family:Interface;-inkscape-font-specification:Interface;text-align:center;letter-spacing:0px;word-spacing:0px;text-anchor:middle;fill:#0c3e65;fill-opacity:1;stroke:none;stroke-width:0.88694847"
       id="text908">
      <path
         d="m -124.32113,136.85814 c 15.49203,0 28.855392,-9.46079 34.650123,-22.82414 h -9.460785 c -5.085168,8.63296 -14.427698,14.42769 -25.189338,14.42769 -16.20159,0 -29.32843,-13.12684 -29.32843,-29.328428 0,-16.201593 13.12684,-29.328432 29.32843,-29.328432 9.46078,0 17.73897,4.375613 23.17892,11.234682 h 9.933825 c -6.386029,-11.707721 -18.803305,-19.631128 -33.112745,-19.631128 -20.81373,0 -37.72488,16.911152 -37.72488,37.724878 0,20.813728 16.91115,37.724878 37.72488,37.724878 z"
         style="font-style:normal;font-variant:normal;font-weight:normal;font-stretch:normal;font-size:118.25980377px;font-family:'Yaro Cut';-inkscape-font-specification:'Yaro Cut';fill:#0c3e65;fill-opacity:1;stroke-width:0.88694847"
         id="path978"
         inkscape:connector-curvature="0" />
    </g>
    <g
       aria-label="c"
       transform="scale(0.99953472,1.0004655)"
       style="font-style:normal;font-variant:normal;font-weight:normal;font-stretch:normal;font-size:35.47793961px;line-height:1.25;font-family:Interface;-inkscape-font-specification:Interface;text-align:center;letter-spacing:0px;word-spacing:0px;text-anchor:middle;fill:#0c3e65;fill-opacity:1;stroke:none;stroke-width:0.88694847"
       id="text908-0">
      <path
         d="m -184.29473,209.99538 c 15.49203,0 28.85539,-9.46079 34.65012,-22.82415 h -9.46078 c -5.08518,8.63297 -14.4277,14.4277 -25.18934,14.4277 -16.2016,0 -29.32843,-13.12684 -29.32843,-29.32843 0,-16.20159 13.12683,-29.32843 29.32843,-29.32843 9.46078,0 17.73897,4.37561 23.17892,11.23468 h 9.93382 c -6.38603,-11.70772 -18.80331,-19.63113 -33.11274,-19.63113 -20.81373,0 -37.72488,16.91115 -37.72488,37.72488 0,20.81372 16.91115,37.72488 37.72488,37.72488 z"
         style="font-style:normal;font-variant:normal;font-weight:normal;font-stretch:normal;font-size:118.25980377px;font-family:'Yaro Cut';-inkscape-font-specification:'Yaro Cut';fill:#0c3e65;fill-opacity:1;stroke-width:0.88694847"
         id="path975"
         inkscape:connector-curvature="0" />
    </g>
    <g
       aria-label="BANCO
CENTRAL DE
COSTA RICA"
       transform="scale(1.0018999,0.99810367)"
       style="font-style:normal;font-variant:normal;font-weight:normal;font-stretch:normal;font-size:11.98130226px;line-height:1.25;font-family:Interface;-inkscape-font-specification:Interface;text-align:center;letter-spacing:0px;word-spacing:0px;text-anchor:middle;fill:#0c3e65;fill-opacity:1;stroke:none;stroke-width:0.2995325"
       id="text886">
      <path
         d="M -63.645818,104.48907 V 63.322062 h 15.444648 q 4.717637,0 7.553836,1.263653 2.86428,1.235572 4.464907,3.847121 1.628709,2.583468 1.628709,5.419667 0,2.639631 -1.43214,4.970368 -1.43214,2.330738 -4.324502,3.762878 3.734797,1.095166 5.72856,3.734797 2.021845,2.63963 2.021845,6.234021 0,2.892361 -1.235572,5.391586 -1.20749,2.471147 -3.004686,3.819037 -1.797195,1.3479 -4.521069,2.04993 -2.695793,0.67395 -6.627158,0.67395 z m 5.447749,-23.869003 h 8.901733 q 3.622472,0 5.195017,-0.47738 2.078008,-0.617786 3.117011,-2.049926 1.067085,-1.43214 1.067085,-3.594391 0,-2.049926 -0.982841,-3.59439 -0.982842,-1.572546 -2.808118,-2.13417 -1.825277,-0.589705 -6.262102,-0.589705 h -8.227785 z m 0,19.010956 h 10.249629 q 2.639631,0 3.706716,-0.196568 1.881438,-0.336974 3.145091,-1.123247 1.263653,-0.786273 2.078007,-2.274575 0.814355,-1.516384 0.814355,-3.482066 0,-2.302657 -1.17941,-3.987527 -1.179409,-1.712952 -3.285497,-2.3869 -2.078008,-0.70203 -6.009372,-0.70203 h -9.519519 z"
         style="font-style:normal;font-variant:normal;font-weight:normal;font-stretch:normal;font-size:57.51025009px;line-height:0.91000003;font-family:Helvetica;-inkscape-font-specification:Helvetica;text-align:start;letter-spacing:-2.60912609px;text-anchor:start;fill:#0c3e65;fill-opacity:1;stroke-width:0.2995325"
         id="path909" />
      <path
         d="m -32.136314,104.48907 15.809702,-41.167008 h 5.868966 L 6.3910604,104.48907 H 0.18512035 L -4.6167609,92.021025 H -21.830522 l -4.52107,12.468045 z M -20.257976,87.584199 H -6.3016315 L -10.598052,76.183241 q -1.965682,-5.195018 -2.920442,-8.536678 -0.786273,3.959446 -2.218413,7.86273 z"
         style="font-style:normal;font-variant:normal;font-weight:normal;font-stretch:normal;font-size:57.51025009px;line-height:0.91000003;font-family:Helvetica;-inkscape-font-specification:Helvetica;text-align:start;letter-spacing:-2.60912609px;text-anchor:start;fill:#0c3e65;fill-opacity:1;stroke-width:0.2995325"
         id="path911" />
      <path
         d="M 8.1345164,104.48907 V 63.322062 H 13.722671 L 35.345177,95.643496 V 63.322062 h 5.223099 V 104.48907 H 34.980121 L 13.357615,72.139551 v 32.349519 z"
         style="font-style:normal;font-variant:normal;font-weight:normal;font-stretch:normal;font-size:57.51025009px;line-height:0.91000003;font-family:Helvetica;-inkscape-font-specification:Helvetica;text-align:start;letter-spacing:-2.60912609px;text-anchor:start;fill:#0c3e65;fill-opacity:1;stroke-width:0.2995325"
         id="path913" />
      <path
         d="m 76.514609,90.055342 5.447748,1.375978 q -1.712951,6.711401 -6.177859,10.24963 -4.436826,3.51015 -10.867415,3.51015 -6.655239,0 -10.839334,-2.6958 -4.156014,-2.723871 -6.346346,-7.862726 -2.162251,-5.138855 -2.162251,-11.035902 0,-6.43059 2.443063,-11.20439 2.471143,-4.801881 6.992213,-7.273025 4.54915,-2.499225 9.996899,-2.499225 6.177858,0 10.390035,3.145092 4.212176,3.145092 5.868966,8.845571 l -5.363505,1.263653 q -1.43214,-4.492988 -4.156014,-6.542914 -2.723874,-2.049926 -6.851807,-2.049926 -4.745719,0 -7.946973,2.274575 -3.173173,2.274575 -4.464907,6.121697 -1.291734,3.81904 -1.291734,7.89081 0,5.25118 1.516383,9.182545 1.544465,3.903284 4.7738,5.840885 3.229335,1.9376 6.992213,1.9376 4.577232,0 7.750405,-2.639629 3.173173,-2.639631 4.29642,-7.834649 z"
         style="font-style:normal;font-variant:normal;font-weight:normal;font-stretch:normal;font-size:57.51025009px;line-height:0.91000003;font-family:Helvetica;-inkscape-font-specification:Helvetica;text-align:start;letter-spacing:-2.60912609px;text-anchor:start;fill:#0c3e65;fill-opacity:1;stroke-width:0.2995325"
         id="path915" />
      <path
         d="m 84.435928,84.439107 q 0,-10.24963 5.503911,-16.034352 5.50391,-5.812804 14.209071,-5.812804 5.70048,0 10.27771,2.723874 4.57724,2.723875 6.96414,7.609999 2.41498,4.858044 2.41498,11.035903 0,6.262102 -2.52731,11.204389 -2.5273,4.942284 -7.1607,7.497674 -4.63339,2.52731 -9.9969,2.52731 -5.812801,0 -10.390033,-2.80812 -4.577231,-2.808119 -6.93605,-7.666162 -2.358819,-4.858044 -2.358819,-10.277711 z m 5.616235,0.08424 q 0,7.441512 3.987527,11.737932 4.015609,4.268338 10.05306,4.268338 6.14978,0 10.10923,-4.3245 3.98752,-4.324501 3.98752,-12.271474 0,-5.026531 -1.71295,-8.761328 -1.68487,-3.762877 -4.97037,-5.812803 -3.25741,-2.078007 -7.32918,-2.078007 -5.784727,0 -9.968823,3.987527 -4.156014,3.959446 -4.156014,13.254315 z"
         style="font-style:normal;font-variant:normal;font-weight:normal;font-stretch:normal;font-size:57.51025009px;line-height:0.91000003;font-family:Helvetica;-inkscape-font-specification:Helvetica;text-align:start;letter-spacing:-2.60912609px;text-anchor:start;fill:#0c3e65;fill-opacity:1;stroke-width:0.2995325"
         id="path917" />
      <path
         d="m -34.048257,142.38967 5.447748,1.37598 q -1.712952,6.7114 -6.177859,10.24963 -4.436826,3.51015 -10.867415,3.51015 -6.655239,0 -10.839334,-2.6958 -4.156015,-2.72387 -6.346346,-7.86273 -2.162251,-5.13885 -2.162251,-11.0359 0,-6.43059 2.443062,-11.20439 2.471144,-4.80188 6.992213,-7.27302 4.549151,-2.49923 9.996899,-2.49923 6.177859,0 10.390036,3.14509 4.212176,3.1451 5.868966,8.84557 l -5.363505,1.26366 q -1.43214,-4.49299 -4.156014,-6.54292 -2.723874,-2.04992 -6.851807,-2.04992 -4.745719,0 -7.946973,2.27457 -3.173173,2.27458 -4.464908,6.1217 -1.291734,3.81904 -1.291734,7.89081 0,5.25118 1.516384,9.18254 1.544465,3.90329 4.7738,5.84089 3.229335,1.9376 6.992213,1.9376 4.577232,0 7.750405,-2.63963 3.173173,-2.63963 4.29642,-7.83465 z"
         style="font-style:normal;font-variant:normal;font-weight:normal;font-stretch:normal;font-size:57.51025009px;line-height:0.91000003;font-family:Helvetica;-inkscape-font-specification:Helvetica;text-align:start;letter-spacing:-2.60912609px;text-anchor:start;fill:#0c3e65;fill-opacity:1;stroke-width:0.2995325"
         id="path919" />
      <path
         d="M -24.357828,156.8234 V 115.65639 H 5.4082194 v 4.85804 H -18.91008 v 12.60845 H 3.8637547 v 4.82997 H -18.91008 v 14.0125 H 6.3629795 v 4.85805 z"
         style="font-style:normal;font-variant:normal;font-weight:normal;font-stretch:normal;font-size:57.51025009px;line-height:0.91000003;font-family:Helvetica;-inkscape-font-specification:Helvetica;text-align:start;letter-spacing:-2.60912609px;text-anchor:start;fill:#0c3e65;fill-opacity:1;stroke-width:0.2995325"
         id="path921" />
      <path
         d="m 11.279612,156.8234 v -41.16701 h 5.588154 l 21.622507,32.32144 v -32.32144 h 5.223098 V 156.8234 H 38.125217 L 16.502711,124.47388 v 32.34952 z"
         style="font-style:normal;font-variant:normal;font-weight:normal;font-stretch:normal;font-size:57.51025009px;line-height:0.91000003;font-family:Helvetica;-inkscape-font-specification:Helvetica;text-align:start;letter-spacing:-2.60912609px;text-anchor:start;fill:#0c3e65;fill-opacity:1;stroke-width:0.2995325"
         id="path923" />
      <path
         d="M 60.761065,156.8234 V 120.51443 H 47.197857 v -4.85804 h 32.630327 v 4.85804 h -13.61937 v 36.30897 z"
         style="font-style:normal;font-variant:normal;font-weight:normal;font-stretch:normal;font-size:57.51025009px;line-height:0.91000003;font-family:Helvetica;-inkscape-font-specification:Helvetica;text-align:start;letter-spacing:-2.60912609px;text-anchor:start;fill:#0c3e65;fill-opacity:1;stroke-width:0.2995325"
         id="path925" />
      <path
         d="m 82.919545,156.8234 v -41.16701 h 18.252765 q 5.50391,0 8.36819,1.12325 2.86428,1.09516 4.57723,3.90328 1.71295,2.80812 1.71295,6.20594 0,4.38067 -2.83619,7.38535 -2.8362,3.00469 -8.76133,3.81904 2.16225,1.039 3.2855,2.04993 2.3869,2.19033 4.52107,5.47583 l 7.1607,11.20439 h -6.85181 l -5.44775,-8.56476 q -2.3869,-3.70672 -3.93136,-5.6724 -1.54447,-1.96568 -2.78004,-2.75196 -1.207492,-0.78627 -2.471145,-1.09516 -0.926679,-0.19657 -3.032767,-0.19657 h -6.318265 v 18.28085 z m 5.447748,-22.99849 h 11.709847 q 3.7348,0 5.84089,-0.75819 2.10609,-0.78627 3.20125,-2.47114 1.09517,-1.71295 1.09517,-3.70672 0,-2.92044 -2.13417,-4.80188 -2.10609,-1.88144 -6.68332,-1.88144 H 88.367293 Z"
         style="font-style:normal;font-variant:normal;font-weight:normal;font-stretch:normal;font-size:57.51025009px;line-height:0.91000003;font-family:Helvetica;-inkscape-font-specification:Helvetica;text-align:start;letter-spacing:-2.60912609px;text-anchor:start;fill:#0c3e65;fill-opacity:1;stroke-width:0.2995325"
         id="path927" />
      <path
         d="m 117.26525,156.8234 15.8097,-41.16701 h 5.86897 l 16.84871,41.16701 h -6.20594 l -4.80189,-12.46805 h -17.21376 l -4.52107,12.46805 z m 11.87834,-16.90487 h 13.95634 l -4.29642,-11.40096 q -1.96568,-5.19502 -2.92044,-8.53668 -0.78627,3.95945 -2.21841,7.86273 z"
         style="font-style:normal;font-variant:normal;font-weight:normal;font-stretch:normal;font-size:57.51025009px;line-height:0.91000003;font-family:Helvetica;-inkscape-font-specification:Helvetica;text-align:start;letter-spacing:-2.60912609px;text-anchor:start;fill:#0c3e65;fill-opacity:1;stroke-width:0.2995325"
         id="path929" />
      <path
         d="m 157.36759,156.8234 v -41.16701 h 5.44775 v 36.30896 h 20.27461 v 4.85805 z"
         style="font-style:normal;font-variant:normal;font-weight:normal;font-stretch:normal;font-size:57.51025009px;line-height:0.91000003;font-family:Helvetica;-inkscape-font-specification:Helvetica;text-align:start;letter-spacing:-2.60912609px;text-anchor:start;fill:#0c3e65;fill-opacity:1;stroke-width:0.2995325"
         id="path931" />
      <path
         d="m 198.20246,156.8234 v -41.16701 h 14.18099 q 4.80188,0 7.32919,0.58971 3.53823,0.81435 6.03745,2.94852 3.25742,2.75195 4.85805,7.04837 1.6287,4.26834 1.6287,9.77225 0,4.68956 -1.09516,8.31203 -1.09517,3.62247 -2.80812,6.00937 -1.71295,2.35882 -3.76288,3.7348 -2.02184,1.3479 -4.9142,2.04993 -2.86428,0.70203 -6.59908,0.70203 z m 5.44775,-4.85805 h 8.78941 q 4.07177,0 6.37442,-0.75819 2.33074,-0.75819 3.70672,-2.13417 1.9376,-1.9376 3.00468,-5.19502 1.09517,-3.28549 1.09517,-7.94697 0,-6.45867 -2.13417,-9.91265 -2.10609,-3.48207 -5.13886,-4.66148 -2.19033,-0.84244 -7.04837,-0.84244 h -8.649 z"
         style="font-style:normal;font-variant:normal;font-weight:normal;font-stretch:normal;font-size:57.51025009px;line-height:0.91000003;font-family:Helvetica;-inkscape-font-specification:Helvetica;text-align:start;letter-spacing:-2.60912609px;text-anchor:start;fill:#0c3e65;fill-opacity:1;stroke-width:0.2995325"
         id="path933" />
      <path
         d="m 237.2658,156.8234 v -41.16701 h 29.76605 v 4.85804 h -24.3183 v 12.60845 h 22.77384 v 4.82997 h -22.77384 v 14.0125 h 25.27306 v 4.85805 z"
         style="font-style:normal;font-variant:normal;font-weight:normal;font-stretch:normal;font-size:57.51025009px;line-height:0.91000003;font-family:Helvetica;-inkscape-font-specification:Helvetica;text-align:start;letter-spacing:-2.60912609px;text-anchor:start;fill:#0c3e65;fill-opacity:1;stroke-width:0.2995325"
         id="path935" />
      <path
         d="m -34.048257,194.724 5.447748,1.37598 q -1.712952,6.7114 -6.177859,10.24963 -4.436826,3.51014 -10.867415,3.51014 -6.655239,0 -10.839334,-2.69579 -4.156015,-2.72387 -6.346346,-7.86273 -2.162251,-5.13885 -2.162251,-11.0359 0,-6.43059 2.443062,-11.20439 2.471144,-4.80188 6.992213,-7.27302 4.549151,-2.49923 9.996899,-2.49923 6.177859,0 10.390036,3.14509 4.212176,3.14509 5.868966,8.84557 l -5.363505,1.26366 q -1.43214,-4.49299 -4.156014,-6.54292 -2.723874,-2.04992 -6.851807,-2.04992 -4.745719,0 -7.946973,2.27457 -3.173173,2.27458 -4.464908,6.1217 -1.291734,3.81904 -1.291734,7.89081 0,5.25118 1.516384,9.18254 1.544465,3.90329 4.7738,5.84089 3.229335,1.9376 6.992213,1.9376 4.577232,0 7.750405,-2.63963 3.173173,-2.63963 4.29642,-7.83465 z"
         style="font-style:normal;font-variant:normal;font-weight:normal;font-stretch:normal;font-size:57.51025009px;line-height:0.91000003;font-family:Helvetica;-inkscape-font-specification:Helvetica;text-align:start;letter-spacing:-2.60912609px;text-anchor:start;fill:#0c3e65;fill-opacity:1;stroke-width:0.2995325"
         id="path937" />
      <path
         d="m -26.126942,189.10777 q 0,-10.24963 5.503911,-16.03436 5.50391,-5.8128 14.209075,-5.8128 5.7004789,0 10.2777107,2.72387 4.5772318,2.72388 6.9641323,7.61 2.414981,4.85805 2.414981,11.03591 0,6.2621 -2.527306,11.20438 -2.5273061,4.94229 -7.1607002,7.49768 -4.6333942,2.5273 -9.996899,2.5273 -5.8128038,0 -10.3900358,-2.80811 -4.577231,-2.80812 -6.93605,-7.66616 -2.358819,-4.85805 -2.358819,-10.27771 z m 5.616235,0.0842 q 0,7.44151 3.987527,11.73793 4.015609,4.26834 10.0530617,4.26834 6.14977768,0 10.1092236,-4.3245 3.9875271,-4.3245 3.9875271,-12.27148 0,-5.02653 -1.7129518,-8.76132 -1.6848706,-3.76288 -4.97036827,-5.81281 -3.25741653,-2.078 -7.32918713,-2.078 -5.7847222,0 -9.9688182,3.98752 -4.156014,3.95945 -4.156014,13.25432 z"
         style="font-style:normal;font-variant:normal;font-weight:normal;font-stretch:normal;font-size:57.51025009px;line-height:0.91000003;font-family:Helvetica;-inkscape-font-specification:Helvetica;text-align:start;letter-spacing:-2.60912609px;text-anchor:start;fill:#0c3e65;fill-opacity:1;stroke-width:0.2995325"
         id="path939" />
      <path
         d="m 15.772601,195.93149 5.138855,-0.4493 q 0.365056,3.08893 1.684871,5.0827 1.347896,1.96568 4.156014,3.20125 2.808118,1.20749 6.318265,1.20749 3.11701,0 5.503911,-0.92668 2.3869,-0.92668 3.538228,-2.5273 1.179409,-1.62871 1.179409,-3.53823 0,-1.9376 -1.123247,-3.36974 -1.123247,-1.46023 -3.706715,-2.44307 -1.65679,-0.64586 -7.329187,-1.99376 -5.672398,-1.37598 -7.946973,-2.58347 -2.948524,-1.54446 -4.408745,-3.81904 -1.43214,-2.30266 -1.43214,-5.13885 0,-3.11701 1.769114,-5.81281 1.769114,-2.72387 5.166937,-4.12793 3.397822,-1.40406 7.553836,-1.40406 4.577232,0 8.059298,1.4883 3.510147,1.46022 5.391586,4.3245 1.881439,2.86428 2.021845,6.48676 l -5.223099,0.39313 q -0.421218,-3.90328 -2.86428,-5.89704 -2.414982,-1.99377 -7.1607,-1.99377 -4.942288,0 -7.216863,1.82528 -2.246494,1.79719 -2.246494,4.35258 0,2.21841 1.600627,3.65055 1.572546,1.43214 8.199704,2.94853 6.655239,1.4883 9.126382,2.61155 3.594391,1.65679 5.307342,4.21217 1.712952,2.52731 1.712952,5.84089 0,3.2855 -1.881439,6.20594 -1.881438,2.89236 -5.419667,4.52107 -3.510147,1.60062 -7.918892,1.60062 -5.588154,0 -9.379113,-1.6287 -3.762877,-1.62871 -5.925128,-4.88613 -2.134169,-3.2855 -2.246494,-7.41343 z"
         style="font-style:normal;font-variant:normal;font-weight:normal;font-stretch:normal;font-size:57.51025009px;line-height:0.91000003;font-family:Helvetica;-inkscape-font-specification:Helvetica;text-align:start;letter-spacing:-2.60912609px;text-anchor:start;fill:#0c3e65;fill-opacity:1;stroke-width:0.2995325"
         id="path941" />
      <path
         d="M 63.906161,209.15773 V 172.84876 H 50.342953 v -4.85804 H 82.97328 v 4.85804 H 69.353909 v 36.30897 z"
         style="font-style:normal;font-variant:normal;font-weight:normal;font-stretch:normal;font-size:57.51025009px;line-height:0.91000003;font-family:Helvetica;-inkscape-font-specification:Helvetica;text-align:start;letter-spacing:-2.60912609px;text-anchor:start;fill:#0c3e65;fill-opacity:1;stroke-width:0.2995325"
         id="path943" />
      <path
         d="m 77.190972,209.15773 15.809702,-41.16701 h 5.868966 l 16.84871,41.16701 h -6.20594 l -4.80189,-12.46805 H 87.496764 l -4.52107,12.46805 z M 89.069309,192.25286 H 103.02565 L 98.729234,180.8519 q -1.965682,-5.19502 -2.920442,-8.53668 -0.786273,3.95945 -2.218413,7.86273 z"
         style="font-style:normal;font-variant:normal;font-weight:normal;font-stretch:normal;font-size:57.51025009px;line-height:0.91000003;font-family:Helvetica;-inkscape-font-specification:Helvetica;text-align:start;letter-spacing:-2.60912609px;text-anchor:start;fill:#0c3e65;fill-opacity:1;stroke-width:0.2995325"
         id="path945" />
      <path
         d="m 127.7981,209.15773 v -41.16701 h 18.25277 q 5.50391,0 8.36819,1.12325 2.86428,1.09516 4.57723,3.90328 1.71295,2.80812 1.71295,6.20594 0,4.38066 -2.8362,7.38535 -2.8362,3.00469 -8.76133,3.81904 2.16225,1.039 3.2855,2.04993 2.3869,2.19033 4.52107,5.47583 l 7.1607,11.20439 h -6.85181 l -5.44774,-8.56476 q -2.3869,-3.70672 -3.93137,-5.6724 -1.54446,-1.96568 -2.78004,-2.75196 -1.20749,-0.78627 -2.47114,-1.09516 -0.92668,-0.19657 -3.03277,-0.19657 h -6.31826 v 18.28085 z m 5.44775,-22.99849 h 11.70985 q 3.7348,0 5.84088,-0.75819 2.10609,-0.78627 3.20126,-2.47114 1.09516,-1.71296 1.09516,-3.70672 0,-2.92044 -2.13417,-4.80188 -2.10608,-1.88144 -6.68332,-1.88144 h -13.02966 z"
         style="font-style:normal;font-variant:normal;font-weight:normal;font-stretch:normal;font-size:57.51025009px;line-height:0.91000003;font-family:Helvetica;-inkscape-font-specification:Helvetica;text-align:start;letter-spacing:-2.60912609px;text-anchor:start;fill:#0c3e65;fill-opacity:1;stroke-width:0.2995325"
         id="path947" />
      <path
         d="m 167.59156,209.15773 v -41.16701 h 5.44774 v 41.16701 z"
         style="font-style:normal;font-variant:normal;font-weight:normal;font-stretch:normal;font-size:57.51025009px;line-height:0.91000003;font-family:Helvetica;-inkscape-font-specification:Helvetica;text-align:start;letter-spacing:-2.60912609px;text-anchor:start;fill:#0c3e65;fill-opacity:1;stroke-width:0.2995325"
         id="path949" />
      <path
         d="m 209.37878,194.724 5.44774,1.37598 q -1.71295,6.7114 -6.17786,10.24963 -4.43682,3.51014 -10.86741,3.51014 -6.65524,0 -10.83934,-2.69579 -4.15601,-2.72387 -6.34634,-7.86273 -2.16225,-5.13885 -2.16225,-11.0359 0,-6.43059 2.44306,-11.20439 2.47114,-4.80188 6.99221,-7.27302 4.54915,-2.49923 9.9969,-2.49923 6.17786,0 10.39004,3.14509 4.21217,3.14509 5.86896,8.84557 l -5.3635,1.26366 q -1.43214,-4.49299 -4.15601,-6.54292 -2.72388,-2.04992 -6.85181,-2.04992 -4.74572,0 -7.94697,2.27457 -3.17318,2.27458 -4.46491,6.1217 -1.29174,3.81904 -1.29174,7.89081 0,5.25118 1.51639,9.18254 1.54446,3.90329 4.7738,5.84089 3.22933,1.9376 6.99221,1.9376 4.57723,0 7.75041,-2.63963 3.17317,-2.63963 4.29642,-7.83465 z"
         style="font-style:normal;font-variant:normal;font-weight:normal;font-stretch:normal;font-size:57.51025009px;line-height:0.91000003;font-family:Helvetica;-inkscape-font-specification:Helvetica;text-align:start;letter-spacing:-2.60912609px;text-anchor:start;fill:#0c3e65;fill-opacity:1;stroke-width:0.2995325"
         id="path951" />
      <path
         d="m 214.43581,209.15773 15.80971,-41.16701 h 5.86896 l 16.84871,41.16701 h -6.20594 l -4.80188,-12.46805 h -17.21376 l -4.52107,12.46805 z m 11.87834,-16.90487 h 13.95635 l -4.29642,-11.40096 q -1.96569,-5.19502 -2.92045,-8.53668 -0.78627,3.95945 -2.21841,7.86273 z"
         style="font-style:normal;font-variant:normal;font-weight:normal;font-stretch:normal;font-size:57.51025009px;line-height:0.91000003;font-family:Helvetica;-inkscape-font-specification:Helvetica;text-align:start;letter-spacing:-2.60912609px;text-anchor:start;fill:#0c3e65;fill-opacity:1;stroke-width:0.2995325"
         id="path953" />
    </g>
  </g>
</svg>
